<svg xmlns="http://www.w3.org/2000/svg" width="64" height="64">
    <path style="stroke:none;fill-rule:nonzero;fill:#000;fill-opacity:1" d="M32 5.332C17.273 5.332 5.332 17.273 5.332 32c0 14.727 11.941 26.668 26.668 26.668 14.727 0 26.668-11.941 26.668-26.668C58.668 17.273 46.727 5.332 32 5.332zm-5.332 37.336C20.778 42.668 16 37.891 16 32c0-5.89 4.777-10.668 10.668-10.668 2.777 0 5.285 1.09 7.184 2.832l-2.914 2.758c-1.16-.977-2.637-1.59-4.27-1.59A6.667 6.667 0 0 0 20 32a6.667 6.667 0 0 0 13.2 1.332h-6.532v-4h10.289c.223.855.375 1.742.375 2.668 0 5.89-4.773 10.668-10.664 10.668zM48 32v4h-2.668v-4h-4v-2.668h4v-4H48v4h4V32zm5.332 0c0 11.781-9.55 21.332-21.332 21.332-11.781 0-21.332-9.55-21.332-21.332 0-11.781 9.55-21.332 21.332-21.332 11.781 0 21.332 9.55 21.332 21.332zm0 0"/>
</svg>
